<?xml version="1.0" encoding="UTF-8" standalone="no"?>
<!DOCTYPE svg PUBLIC "-//W3C//DTD SVG 1.1//EN"
 "http://www.w3.org/Graphics/SVG/1.1/DTD/svg11.dtd">
<!-- Generated by graphviz version 2.26.3 (20100126.1600)
 -->
<!-- Title: controllers_diagram Pages: 1 -->
<svg width="2782pt" height="1588pt"
 viewBox="0.00 0.00 2782.32 1588.06" xmlns="http://www.w3.org/2000/svg" xmlns:xlink="http://www.w3.org/1999/xlink">
<g id="graph1" class="graph" transform="scale(1 1) rotate(0) translate(4 1584.06)">
<title>controllers_diagram</title>
<polygon fill="white" stroke="white" points="-4,5 -4,-1584.06 2779.32,-1584.06 2779.32,5 -4,5"/>
<!-- _diagram_info -->
<g id="node1" class="node"><title>_diagram_info</title>
<text text-anchor="start" x="604" y="-1093.3" font-family="Times Roman,serif" font-size="13.00">Controllers diagram</text>
<text text-anchor="start" x="604" y="-1077.3" font-family="Times Roman,serif" font-size="13.00">Date: Mar 13 2014 &#45; 11:01</text>
<text text-anchor="start" x="604" y="-1061.3" font-family="Times Roman,serif" font-size="13.00">Migration version: 20140212203136</text>
<text text-anchor="start" x="604" y="-1045.3" font-family="Times Roman,serif" font-size="13.00">Generated by RailRoady 1.1.1</text>
<text text-anchor="start" x="604" y="-1029.3" font-family="Times Roman,serif" font-size="13.00">http://railroady.prestonlee.com</text>
</g>
<!-- PayloadsController -->
<g id="node2" class="node"><title>PayloadsController</title>
<ellipse fill="none" stroke="black" cx="1547.5" cy="-1465.57" rx="100.953" ry="18"/>
<text text-anchor="middle" x="1547.5" y="-1461.47" font-family="Times Roman,serif" font-size="14.00">PayloadsController</text>
</g>
<!-- NotesController -->
<g id="node3" class="node"><title>NotesController</title>
<ellipse fill="none" stroke="black" cx="126.346" cy="-167.971" rx="86.8603" ry="18"/>
<text text-anchor="middle" x="126.346" y="-163.871" font-family="Times Roman,serif" font-size="14.00">NotesController</text>
</g>
<!-- ScanController -->
<g id="node4" class="node"><title>ScanController</title>
<ellipse fill="none" stroke="black" cx="1409.61" cy="-386.38" rx="82.1898" ry="18"/>
<text text-anchor="middle" x="1409.61" y="-382.28" font-family="Times Roman,serif" font-size="14.00">ScanController</text>
</g>
<!-- CategoriesController -->
<g id="node5" class="node"><title>CategoriesController</title>
<ellipse fill="none" stroke="black" cx="884.144" cy="-111.758" rx="109.986" ry="18"/>
<text text-anchor="middle" x="884.144" y="-107.658" font-family="Times Roman,serif" font-size="14.00">CategoriesController</text>
</g>
<!-- QuestionsController -->
<g id="node6" class="node"><title>QuestionsController</title>
<ellipse fill="none" stroke="black" cx="2665.82" cy="-1293.13" rx="107.206" ry="18"/>
<text text-anchor="middle" x="2665.82" y="-1289.03" font-family="Times Roman,serif" font-size="14.00">QuestionsController</text>
</g>
<!-- PagesController -->
<g id="node7" class="node"><title>PagesController</title>
<ellipse fill="none" stroke="black" cx="653.264" cy="-903.682" rx="86.8603" ry="18"/>
<text text-anchor="middle" x="653.264" y="-899.582" font-family="Times Roman,serif" font-size="14.00">PagesController</text>
</g>
<!-- WebDesignsController -->
<g id="node8" class="node"><title>WebDesignsController</title>
<ellipse fill="none" stroke="black" cx="1197.02" cy="-546.423" rx="118.13" ry="18"/>
<text text-anchor="middle" x="1197.02" y="-542.323" font-family="Times Roman,serif" font-size="14.00">WebDesignsController</text>
</g>
<!-- CouponsController -->
<g id="node9" class="node"><title>CouponsController</title>
<ellipse fill="none" stroke="black" cx="1882.94" cy="-1044.14" rx="100.758" ry="18"/>
<text text-anchor="middle" x="1882.94" y="-1040.04" font-family="Times Roman,serif" font-size="14.00">CouponsController</text>
</g>
<!-- MyDevise::RegistrationsController -->
<g id="node10" class="node"><title>MyDevise::RegistrationsController</title>
<ellipse fill="none" stroke="black" cx="1110.5" cy="-19" rx="173.916" ry="18"/>
<text text-anchor="middle" x="1110.5" y="-14.9" font-family="Times Roman,serif" font-size="14.00">MyDevise::RegistrationsController</text>
</g>
<!-- CaptchaController -->
<g id="node11" class="node"><title>CaptchaController</title>
<ellipse fill="none" stroke="black" cx="396.466" cy="-628.683" rx="98.1724" ry="18"/>
<text text-anchor="middle" x="396.466" y="-624.583" font-family="Times Roman,serif" font-size="14.00">CaptchaController</text>
</g>
<!-- CityController -->
<g id="node12" class="node"><title>CityController</title>
<ellipse fill="none" stroke="black" cx="421.366" cy="-128.248" rx="78.0216" ry="18"/>
<text text-anchor="middle" x="421.366" y="-124.148" font-family="Times Roman,serif" font-size="14.00">CityController</text>
</g>
<!-- TestController -->
<g id="node13" class="node"><title>TestController</title>
<ellipse fill="none" stroke="black" cx="1667.51" cy="-167.033" rx="78.0216" ry="18"/>
<text text-anchor="middle" x="1667.51" y="-162.933" font-family="Times Roman,serif" font-size="14.00">TestController</text>
</g>
<!-- PlacesController -->
<g id="node14" class="node"><title>PlacesController</title>
<ellipse fill="none" stroke="black" cx="670.539" cy="-104" rx="88.9449" ry="18"/>
<text text-anchor="middle" x="670.539" y="-99.9" font-family="Times Roman,serif" font-size="14.00">PlacesController</text>
</g>
<!-- SitesController -->
<g id="node15" class="node"><title>SitesController</title>
<ellipse fill="none" stroke="black" cx="2266.1" cy="-1561.06" rx="82.1898" ry="18"/>
<text text-anchor="middle" x="2266.1" y="-1556.96" font-family="Times Roman,serif" font-size="14.00">SitesController</text>
</g>
<!-- BusinessesController -->
<g id="node16" class="node"><title>BusinessesController</title>
<ellipse fill="none" stroke="black" cx="2382.61" cy="-1375.75" rx="111.876" ry="18"/>
<text text-anchor="middle" x="2382.61" y="-1371.65" font-family="Times Roman,serif" font-size="14.00">BusinessesController</text>
</g>
<!-- BooboosController -->
<g id="node17" class="node"><title>BooboosController</title>
<ellipse fill="none" stroke="black" cx="2030.15" cy="-1517.47" rx="98.8688" ry="18"/>
<text text-anchor="middle" x="2030.15" y="-1513.37" font-family="Times Roman,serif" font-size="14.00">BooboosController</text>
</g>
<!-- ApplicationController -->
<g id="node18" class="node"><title>ApplicationController</title>
<ellipse fill="none" stroke="black" cx="971.149" cy="-509.793" rx="111.876" ry="18"/>
<text text-anchor="middle" x="971.149" y="-505.693" font-family="Times Roman,serif" font-size="14.00">ApplicationController</text>
</g>
<!-- ApplicationController&#45;&gt;NotesController -->
<g id="edge4" class="edge"><title>ApplicationController&#45;&gt;NotesController</title>
<path fill="none" stroke="black" d="M929.543,-492.958C785.243,-434.572 307.414,-241.234 166.065,-184.042"/>
</g>
<!-- ApplicationController&#45;&gt;ScanController -->
<g id="edge6" class="edge"><title>ApplicationController&#45;&gt;ScanController</title>
<path fill="none" stroke="black" d="M1027.13,-494.037C1113.12,-469.832 1276.44,-423.863 1359.05,-400.61"/>
</g>
<!-- ApplicationController&#45;&gt;CategoriesController -->
<g id="edge8" class="edge"><title>ApplicationController&#45;&gt;CategoriesController</title>
<path fill="none" stroke="black" d="M983.962,-491.886C1005.75,-459.355 1046.82,-387.935 1037.53,-323.302 1025.24,-237.76 946.305,-162.387 906.716,-129.417"/>
</g>
<!-- ApplicationController&#45;&gt;PagesController -->
<g id="edge12" class="edge"><title>ApplicationController&#45;&gt;PagesController</title>
<path fill="none" stroke="black" d="M941.389,-527.306C896.576,-554.933 811.348,-612.51 757.977,-680.255 705.089,-747.387 671.039,-845.576 658.585,-885.647"/>
</g>
<!-- ApplicationController&#45;&gt;WebDesignsController -->
<g id="edge14" class="edge"><title>ApplicationController&#45;&gt;WebDesignsController</title>
<path fill="none" stroke="black" d="M1050.15,-522.604C1071.52,-526.07 1094.68,-529.826 1116.15,-533.308"/>
</g>
<!-- ApplicationController&#45;&gt;CaptchaController -->
<g id="edge20" class="edge"><title>ApplicationController&#45;&gt;CaptchaController</title>
<path fill="none" stroke="black" d="M902.399,-524.016C790.676,-547.129 571.206,-592.533 461.754,-615.176"/>
</g>
<!-- ApplicationController&#45;&gt;CityController -->
<g id="edge22" class="edge"><title>ApplicationController&#45;&gt;CityController</title>
<path fill="none" stroke="black" d="M948.647,-491.922C910.579,-460.81 832.706,-393.273 782.339,-323.004 778.766,-318.019 780.589,-314.979 776.299,-310.596 687.87,-220.236 545.14,-166.038 470.471,-142.365"/>
</g>
<!-- ApplicationController&#45;&gt;TestController -->
<g id="edge24" class="edge"><title>ApplicationController&#45;&gt;TestController</title>
<path fill="none" stroke="black" d="M1006.16,-492.56C1125.72,-433.711 1516.92,-241.155 1634.07,-183.493"/>
</g>
<!-- ApplicationController&#45;&gt;PlacesController -->
<g id="edge26" class="edge"><title>ApplicationController&#45;&gt;PlacesController</title>
<path fill="none" stroke="black" d="M948.647,-491.922C910.579,-460.81 832.706,-393.273 782.339,-323.004 778.766,-318.019 779.039,-316.083 776.299,-310.596 741.381,-240.658 698.65,-158.076 680,-122.177"/>
</g>
<!-- PayloadNodesController -->
<g id="node19" class="node"><title>PayloadNodesController</title>
<ellipse fill="none" stroke="black" cx="909.935" cy="-323.153" rx="125.774" ry="18"/>
<text text-anchor="middle" x="909.935" y="-319.053" font-family="Times Roman,serif" font-size="14.00">PayloadNodesController</text>
</g>
<!-- ApplicationController&#45;&gt;PayloadNodesController -->
<g id="edge34" class="edge"><title>ApplicationController&#45;&gt;PayloadNodesController</title>
<path fill="none" stroke="black" d="M965.168,-491.557C953.435,-455.784 927.53,-376.798 915.85,-341.188"/>
</g>
<!-- ImpersonateController -->
<g id="node20" class="node"><title>ImpersonateController</title>
<ellipse fill="none" stroke="black" cx="120.5" cy="-500.494" rx="119.02" ry="18"/>
<text text-anchor="middle" x="120.5" y="-496.394" font-family="Times Roman,serif" font-size="14.00">ImpersonateController</text>
</g>
<!-- ApplicationController&#45;&gt;ImpersonateController -->
<g id="edge36" class="edge"><title>ApplicationController&#45;&gt;ImpersonateController</title>
<path fill="none" stroke="black" d="M861.437,-513.478C818.044,-514.637 767.726,-515.611 722.098,-515.568 552.845,-515.41 356.892,-509.416 235.809,-505.035"/>
</g>
<!-- CodesController -->
<g id="node21" class="node"><title>CodesController</title>
<ellipse fill="none" stroke="black" cx="1684.74" cy="-514.586" rx="87.7515" ry="18"/>
<text text-anchor="middle" x="1684.74" y="-510.486" font-family="Times Roman,serif" font-size="14.00">CodesController</text>
</g>
<!-- ApplicationController&#45;&gt;CodesController -->
<g id="edge38" class="edge"><title>ApplicationController&#45;&gt;CodesController</title>
<path fill="none" stroke="black" d="M1083.43,-510.547C1225.52,-511.501 1467.27,-513.125 1596.73,-513.995"/>
</g>
<!-- SubscriptionsController -->
<g id="node22" class="node"><title>SubscriptionsController</title>
<ellipse fill="none" stroke="black" cx="1661.44" cy="-857.686" rx="122.994" ry="18"/>
<text text-anchor="middle" x="1661.44" y="-853.586" font-family="Times Roman,serif" font-size="14.00">SubscriptionsController</text>
</g>
<!-- ApplicationController&#45;&gt;SubscriptionsController -->
<g id="edge40" class="edge"><title>ApplicationController&#45;&gt;SubscriptionsController</title>
<path fill="none" stroke="black" d="M1005.38,-527.045C1122.9,-586.274 1509.17,-780.942 1627,-840.33"/>
</g>
<!-- EmailsController -->
<g id="node24" class="node"><title>EmailsController</title>
<ellipse fill="none" stroke="black" cx="1062.43" cy="-914.733" rx="89.8356" ry="18"/>
<text text-anchor="middle" x="1062.43" y="-910.633" font-family="Times Roman,serif" font-size="14.00">EmailsController</text>
</g>
<!-- ApplicationController&#45;&gt;EmailsController -->
<g id="edge44" class="edge"><title>ApplicationController&#45;&gt;EmailsController</title>
<path fill="none" stroke="black" d="M969.776,-528.03C967.503,-564.378 964.588,-648.214 979.705,-716.375 995.177,-786.133 1033.79,-862.522 1052.27,-896.587"/>
</g>
<!-- ResultsController -->
<g id="node26" class="node"><title>ResultsController</title>
<ellipse fill="none" stroke="black" cx="1144.29" cy="-334.675" rx="93.8091" ry="18"/>
<text text-anchor="middle" x="1144.29" y="-330.575" font-family="Times Roman,serif" font-size="14.00">ResultsController</text>
</g>
<!-- ApplicationController&#45;&gt;ResultsController -->
<g id="edge48" class="edge"><title>ApplicationController&#45;&gt;ResultsController</title>
<path fill="none" stroke="black" d="M989.026,-491.712C1022.38,-457.98 1093.69,-385.854 1126.77,-352.397"/>
</g>
<!-- FailedJobsController -->
<g id="node27" class="node"><title>FailedJobsController</title>
<ellipse fill="none" stroke="black" cx="1357.13" cy="-125.057" rx="105.122" ry="18"/>
<text text-anchor="middle" x="1357.13" y="-120.957" font-family="Times Roman,serif" font-size="14.00">FailedJobsController</text>
</g>
<!-- ApplicationController&#45;&gt;FailedJobsController -->
<g id="edge50" class="edge"><title>ApplicationController&#45;&gt;FailedJobsController</title>
<path fill="none" stroke="black" d="M1008.65,-492.712C1064.64,-465.722 1170.89,-408.609 1239.89,-334.783 1296.29,-274.443 1335.58,-181.982 1350.49,-143.183"/>
</g>
<!-- PackagesController -->
<g id="node28" class="node"><title>PackagesController</title>
<ellipse fill="none" stroke="black" cx="410.801" cy="-888.302" rx="103.037" ry="18"/>
<text text-anchor="middle" x="410.801" y="-884.202" font-family="Times Roman,serif" font-size="14.00">PackagesController</text>
</g>
<!-- ApplicationController&#45;&gt;PackagesController -->
<g id="edge52" class="edge"><title>ApplicationController&#45;&gt;PackagesController</title>
<path fill="none" stroke="black" d="M945.166,-527.533C900.115,-558.276 804.562,-623.413 723.617,-678.129 617.645,-749.762 491.096,-834.558 437.2,-870.637"/>
</g>
<!-- LeadsController -->
<g id="node31" class="node"><title>LeadsController</title>
<ellipse fill="none" stroke="black" cx="120.314" cy="-843.815" rx="86.8603" ry="18"/>
<text text-anchor="middle" x="120.314" y="-839.715" font-family="Times Roman,serif" font-size="14.00">LeadsController</text>
</g>
<!-- ApplicationController&#45;&gt;LeadsController -->
<g id="edge58" class="edge"><title>ApplicationController&#45;&gt;LeadsController</title>
<path fill="none" stroke="black" d="M928.17,-526.527C855.593,-554.797 704.133,-613.844 576.147,-664.072 422.72,-724.284 240.43,-796.311 160.849,-827.78"/>
</g>
<!-- TasksController -->
<g id="node32" class="node"><title>TasksController</title>
<ellipse fill="none" stroke="black" cx="637.018" cy="-678.013" rx="84.7756" ry="18"/>
<text text-anchor="middle" x="637.018" y="-673.913" font-family="Times Roman,serif" font-size="14.00">TasksController</text>
</g>
<!-- ApplicationController&#45;&gt;TasksController -->
<g id="edge60" class="edge"><title>ApplicationController&#45;&gt;TasksController</title>
<path fill="none" stroke="black" d="M936.961,-527.005C872.593,-559.411 734.167,-629.103 670.413,-661.2"/>
</g>
<!-- ClientManagerController -->
<g id="node33" class="node"><title>ClientManagerController</title>
<ellipse fill="none" stroke="black" cx="722.205" cy="-495.968" rx="129.248" ry="18"/>
<text text-anchor="middle" x="722.205" y="-491.868" font-family="Times Roman,serif" font-size="14.00">ClientManagerController</text>
</g>
<!-- ApplicationController&#45;&gt;ClientManagerController -->
<g id="edge62" class="edge"><title>ApplicationController&#45;&gt;ClientManagerController</title>
<path fill="none" stroke="black" d="M865.213,-503.91C857.67,-503.491 850.034,-503.067 842.419,-502.644"/>
</g>
<!-- GoogleCategoriesController -->
<g id="node36" class="node"><title>GoogleCategoriesController</title>
<ellipse fill="none" stroke="black" cx="429.392" cy="-384.668" rx="143.841" ry="18"/>
<text text-anchor="middle" x="429.392" y="-380.568" font-family="Times Roman,serif" font-size="14.00">GoogleCategoriesController</text>
</g>
<!-- ApplicationController&#45;&gt;GoogleCategoriesController -->
<g id="edge68" class="edge"><title>ApplicationController&#45;&gt;GoogleCategoriesController</title>
<path fill="none" stroke="black" d="M907.142,-495.01C804.524,-471.309 604.019,-425 498.348,-400.594"/>
</g>
<!-- DashboardController -->
<g id="node37" class="node"><title>DashboardController</title>
<ellipse fill="none" stroke="black" cx="1092.3" cy="-716.428" rx="111.181" ry="18"/>
<text text-anchor="middle" x="1092.3" y="-712.328" font-family="Times Roman,serif" font-size="14.00">DashboardController</text>
</g>
<!-- ApplicationController&#45;&gt;DashboardController -->
<g id="edge70" class="edge"><title>ApplicationController&#45;&gt;DashboardController</title>
<path fill="none" stroke="black" d="M981.689,-527.769C1004.6,-566.848 1058.73,-659.171 1081.7,-698.346"/>
</g>
<!-- UsersController -->
<g id="node38" class="node"><title>UsersController</title>
<ellipse fill="none" stroke="black" cx="1324.96" cy="-900.009" rx="86.1654" ry="18"/>
<text text-anchor="middle" x="1324.96" y="-895.909" font-family="Times Roman,serif" font-size="14.00">UsersController</text>
</g>
<!-- ApplicationController&#45;&gt;UsersController -->
<g id="edge72" class="edge"><title>ApplicationController&#45;&gt;UsersController</title>
<path fill="none" stroke="black" d="M995.265,-527.6C1039.91,-561.284 1137.05,-638.014 1204.9,-716.48 1252.85,-771.918 1296.57,-847.756 1315.31,-881.968"/>
</g>
<!-- DownloadsController -->
<g id="node39" class="node"><title>DownloadsController</title>
<ellipse fill="none" stroke="black" cx="855.284" cy="-894.928" rx="112.071" ry="18"/>
<text text-anchor="middle" x="855.284" y="-890.828" font-family="Times Roman,serif" font-size="14.00">DownloadsController</text>
</g>
<!-- ApplicationController&#45;&gt;DownloadsController -->
<g id="edge74" class="edge"><title>ApplicationController&#45;&gt;DownloadsController</title>
<path fill="none" stroke="black" d="M973.399,-528.102C976.702,-559.76 981.073,-626.519 967.173,-680.484 946.905,-759.172 893.352,-841.423 868.411,-876.894"/>
</g>
<!-- ZipController -->
<g id="node40" class="node"><title>ZipController</title>
<ellipse fill="none" stroke="black" cx="1099.13" cy="-114.21" rx="73.8534" ry="18"/>
<text text-anchor="middle" x="1099.13" y="-110.11" font-family="Times Roman,serif" font-size="14.00">ZipController</text>
</g>
<!-- ApplicationController&#45;&gt;ZipController -->
<g id="edge76" class="edge"><title>ApplicationController&#45;&gt;ZipController</title>
<path fill="none" stroke="black" d="M977.988,-491.643C990.418,-458.431 1017.3,-385.565 1037.53,-323.302 1060.34,-253.121 1084.14,-168.538 1094.19,-132.214"/>
</g>
<!-- JobsController -->
<g id="node41" class="node"><title>JobsController</title>
<ellipse fill="none" stroke="black" cx="1409.31" cy="-667.302" rx="78.0216" ry="18"/>
<text text-anchor="middle" x="1409.31" y="-663.202" font-family="Times Roman,serif" font-size="14.00">JobsController</text>
</g>
<!-- ApplicationController&#45;&gt;JobsController -->
<g id="edge78" class="edge"><title>ApplicationController&#45;&gt;JobsController</title>
<path fill="none" stroke="black" d="M1017.21,-526.351C1102.68,-557.076 1284.61,-622.477 1367.09,-652.127"/>
</g>
<!-- AccountsController -->
<g id="node42" class="node"><title>AccountsController</title>
<ellipse fill="none" stroke="black" cx="862.575" cy="-680.37" rx="102.843" ry="18"/>
<text text-anchor="middle" x="862.575" y="-676.27" font-family="Times Roman,serif" font-size="14.00">AccountsController</text>
</g>
<!-- ApplicationController&#45;&gt;AccountsController -->
<g id="edge80" class="edge"><title>ApplicationController&#45;&gt;AccountsController</title>
<path fill="none" stroke="black" d="M959.735,-527.725C938.882,-560.486 894.859,-629.649 873.999,-662.422"/>
</g>
<!-- ScanApiController -->
<g id="node44" class="node"><title>ScanApiController</title>
<ellipse fill="none" stroke="black" cx="677.704" cy="-310.41" rx="96.7846" ry="18"/>
<text text-anchor="middle" x="677.704" y="-306.31" font-family="Times Roman,serif" font-size="14.00">ScanApiController</text>
</g>
<!-- ApplicationController&#45;&gt;ScanApiController -->
<g id="edge84" class="edge"><title>ApplicationController&#45;&gt;ScanApiController</title>
<path fill="none" stroke="black" d="M945.365,-492.274C889.702,-454.453 758.84,-365.538 703.324,-327.818"/>
</g>
<!-- CallCentersController -->
<g id="node23" class="node"><title>CallCentersController</title>
<ellipse fill="none" stroke="black" cx="1570.61" cy="-1096.19" rx="114.155" ry="18"/>
<text text-anchor="middle" x="1570.61" y="-1092.09" font-family="Times Roman,serif" font-size="14.00">CallCentersController</text>
</g>
<!-- ImagesController -->
<g id="node25" class="node"><title>ImagesController</title>
<ellipse fill="none" stroke="black" cx="2659.17" cy="-1044.93" rx="93.1142" ry="18"/>
<text text-anchor="middle" x="2659.17" y="-1040.83" font-family="Times Roman,serif" font-size="14.00">ImagesController</text>
</g>
<!-- ReportFeedbacksController -->
<g id="node29" class="node"><title>ReportFeedbacksController</title>
<ellipse fill="none" stroke="black" cx="1849.18" cy="-1287.61" rx="139.867" ry="18"/>
<text text-anchor="middle" x="1849.18" y="-1283.51" font-family="Times Roman,serif" font-size="14.00">ReportFeedbacksController</text>
</g>
<!-- LabelsController -->
<g id="node30" class="node"><title>LabelsController</title>
<ellipse fill="none" stroke="black" cx="2370.49" cy="-1087.76" rx="89.139" ry="18"/>
<text text-anchor="middle" x="2370.49" y="-1083.66" font-family="Times Roman,serif" font-size="14.00">LabelsController</text>
</g>
<!-- NotificationsController -->
<g id="node34" class="node"><title>NotificationsController</title>
<ellipse fill="none" stroke="black" cx="2137.14" cy="-1039" rx="118.825" ry="18"/>
<text text-anchor="middle" x="2137.14" y="-1034.9" font-family="Times Roman,serif" font-size="14.00">NotificationsController</text>
</g>
<!-- ReportsController -->
<g id="node35" class="node"><title>ReportsController</title>
<ellipse fill="none" stroke="black" cx="1804.21" cy="-1545.87" rx="95.8938" ry="18"/>
<text text-anchor="middle" x="1804.21" y="-1541.77" font-family="Times Roman,serif" font-size="14.00">ReportsController</text>
</g>
<!-- CustomersController -->
<g id="node43" class="node"><title>CustomersController</title>
<ellipse fill="none" stroke="black" cx="2641.51" cy="-1544.74" rx="109.986" ry="18"/>
<text text-anchor="middle" x="2641.51" y="-1540.64" font-family="Times Roman,serif" font-size="14.00">CustomersController</text>
</g>
<!-- InheritedResources::Base -->
<g id="node45" class="node"><title>InheritedResources::Base</title>
<ellipse fill="none" stroke="black" cx="2133.73" cy="-1283.28" rx="132.222" ry="18"/>
<text text-anchor="middle" x="2133.73" y="-1279.18" font-family="Times Roman,serif" font-size="14.00">InheritedResources::Base</text>
</g>
<!-- InheritedResources::Base&#45;&gt;PayloadsController -->
<g id="edge2" class="edge"><title>InheritedResources::Base&#45;&gt;PayloadsController</title>
<path fill="none" stroke="black" d="M2080.67,-1299.78C1968.36,-1334.71 1707.89,-1415.7 1597.93,-1449.89"/>
</g>
<!-- InheritedResources::Base&#45;&gt;QuestionsController -->
<g id="edge10" class="edge"><title>InheritedResources::Base&#45;&gt;QuestionsController</title>
<path fill="none" stroke="black" d="M2264.57,-1285.7C2355.19,-1287.38 2474.32,-1289.59 2559.17,-1291.16"/>
</g>
<!-- InheritedResources::Base&#45;&gt;CouponsController -->
<g id="edge16" class="edge"><title>InheritedResources::Base&#45;&gt;CouponsController</title>
<path fill="none" stroke="black" d="M2114.88,-1265.31C2068.29,-1220.88 1948.13,-1106.3 1901.66,-1061.99"/>
</g>
<!-- InheritedResources::Base&#45;&gt;SitesController -->
<g id="edge28" class="edge"><title>InheritedResources::Base&#45;&gt;SitesController</title>
<path fill="none" stroke="black" d="M2142.42,-1301.51C2166.46,-1351.96 2233.68,-1493.03 2257.56,-1543.13"/>
</g>
<!-- InheritedResources::Base&#45;&gt;BusinessesController -->
<g id="edge30" class="edge"><title>InheritedResources::Base&#45;&gt;BusinessesController</title>
<path fill="none" stroke="black" d="M2179.38,-1300.24C2224.56,-1317.03 2293.3,-1342.57 2338.08,-1359.21"/>
</g>
<!-- InheritedResources::Base&#45;&gt;BooboosController -->
<g id="edge32" class="edge"><title>InheritedResources::Base&#45;&gt;BooboosController</title>
<path fill="none" stroke="black" d="M2125.78,-1301.27C2106.5,-1344.86 2057.44,-1455.77 2038.14,-1499.42"/>
</g>
<!-- InheritedResources::Base&#45;&gt;CallCentersController -->
<g id="edge42" class="edge"><title>InheritedResources::Base&#45;&gt;CallCentersController</title>
<path fill="none" stroke="black" d="M2083.26,-1266.52C1975.82,-1230.82 1725.64,-1147.7 1619.56,-1112.45"/>
</g>
<!-- InheritedResources::Base&#45;&gt;ImagesController -->
<g id="edge46" class="edge"><title>InheritedResources::Base&#45;&gt;ImagesController</title>
<path fill="none" stroke="black" d="M2171.94,-1265.95C2269.47,-1221.71 2526.68,-1105.03 2622.5,-1061.56"/>
</g>
<!-- InheritedResources::Base&#45;&gt;ReportFeedbacksController -->
<g id="edge54" class="edge"><title>InheritedResources::Base&#45;&gt;ReportFeedbacksController</title>
<path fill="none" stroke="black" d="M2002.28,-1285.28C1997.62,-1285.35 1992.95,-1285.42 1988.28,-1285.49"/>
</g>
<!-- InheritedResources::Base&#45;&gt;LabelsController -->
<g id="edge56" class="edge"><title>InheritedResources::Base&#45;&gt;LabelsController</title>
<path fill="none" stroke="black" d="M2155.58,-1265.24C2200.8,-1227.9 2304.15,-1142.54 2349.03,-1105.48"/>
</g>
<!-- InheritedResources::Base&#45;&gt;NotificationsController -->
<g id="edge64" class="edge"><title>InheritedResources::Base&#45;&gt;NotificationsController</title>
<path fill="none" stroke="black" d="M2133.99,-1264.92C2134.62,-1219.54 2136.25,-1102.5 2136.88,-1057.24"/>
</g>
<!-- InheritedResources::Base&#45;&gt;ReportsController -->
<g id="edge66" class="edge"><title>InheritedResources::Base&#45;&gt;ReportsController</title>
<path fill="none" stroke="black" d="M2111.34,-1301.13C2051.08,-1349.15 1885.99,-1480.7 1826.2,-1528.35"/>
</g>
<!-- InheritedResources::Base&#45;&gt;CustomersController -->
<g id="edge82" class="edge"><title>InheritedResources::Base&#45;&gt;CustomersController</title>
<path fill="none" stroke="black" d="M2157.36,-1301.26C2183.75,-1320.88 2228.13,-1352.56 2269.01,-1375.56 2384,-1440.26 2528.23,-1500.13 2598.73,-1528.13"/>
</g>
<!-- Devise::RegistrationsController -->
<g id="node54" class="node"><title>Devise::RegistrationsController</title>
<ellipse fill="none" stroke="black" cx="1477.34" cy="-19" rx="160.018" ry="18"/>
<text text-anchor="middle" x="1477.34" y="-14.9" font-family="Times Roman,serif" font-size="14.00">Devise::RegistrationsController</text>
</g>
<!-- Devise::RegistrationsController&#45;&gt;MyDevise::RegistrationsController -->
<g id="edge18" class="edge"><title>Devise::RegistrationsController&#45;&gt;MyDevise::RegistrationsController</title>
<path fill="none" stroke="black" d="M1317.24,-19C1306.43,-19 1295.52,-19 1284.65,-19"/>
</g>
</g>
</svg>
