<?xml version="1.0" encoding="UTF-8" standalone="no"?>
<!DOCTYPE svg PUBLIC "-//W3C//DTD SVG 1.1//EN"
 "http://www.w3.org/Graphics/SVG/1.1/DTD/svg11.dtd">
<!-- Generated by graphviz version 2.34.0 (20131124.0746)
 -->
<!-- Title: controllers_diagram Pages: 1 -->
<svg width="2540pt" height="1709pt"
 viewBox="0.00 0.00 2540.29 1709.41" xmlns="http://www.w3.org/2000/svg" xmlns:xlink="http://www.w3.org/1999/xlink">
<g id="graph0" class="graph" transform="scale(1 1) rotate(0) translate(4 1705.41)">
<title>controllers_diagram</title>
<polygon fill="white" stroke="white" points="-4,4 -4,-1705.41 2536.29,-1705.41 2536.29,4 -4,4"/>
<!-- _diagram_info -->
<g id="node1" class="node"><title>_diagram_info</title>
<text text-anchor="start" x="1198" y="-1259" font-family="Times,serif" font-size="13.00">Controllers diagram</text>
<text text-anchor="start" x="1198" y="-1243.4" font-family="Times,serif" font-size="13.00">Date: Nov 24 2013 &#45; 12:58</text>
<text text-anchor="start" x="1198" y="-1227.8" font-family="Times,serif" font-size="13.00">Migration version: 20131118180303</text>
<text text-anchor="start" x="1198" y="-1212.2" font-family="Times,serif" font-size="13.00">Generated by RailRoady 1.1.1</text>
<text text-anchor="start" x="1198" y="-1196.6" font-family="Times,serif" font-size="13.00">http://railroady.prestonlee.com</text>
</g>
<!-- AccountsController -->
<g id="node2" class="node"><title>AccountsController</title>
<ellipse fill="none" stroke="black" cx="1532.2" cy="-1446.3" rx="87.4061" ry="18"/>
<text text-anchor="middle" x="1532.2" y="-1440.7" font-family="Times,serif" font-size="14.00">AccountsController</text>
</g>
<!-- ApplicationController -->
<g id="node3" class="node"><title>ApplicationController</title>
<ellipse fill="none" stroke="black" cx="971.447" cy="-596.561" rx="96.1448" ry="18"/>
<text text-anchor="middle" x="971.447" y="-590.961" font-family="Times,serif" font-size="14.00">ApplicationController</text>
</g>
<!-- CaptchaController -->
<g id="node6" class="node"><title>CaptchaController</title>
<ellipse fill="none" stroke="black" cx="1293" cy="-466.481" rx="82.2395" ry="18"/>
<text text-anchor="middle" x="1293" y="-460.881" font-family="Times,serif" font-size="14.00">CaptchaController</text>
</g>
<!-- ApplicationController&#45;&gt;CaptchaController -->
<g id="edge4" class="edge"><title>ApplicationController&#45;&gt;CaptchaController</title>
<path fill="none" stroke="black" d="M1011.85,-580.218C1072.34,-555.745 1186.05,-509.748 1248.73,-484.391"/>
<polyline fill="none" stroke="black" points="1253.52,-482.452 1248.88,-484.327 "/>
</g>
<!-- CategoriesController -->
<g id="node7" class="node"><title>CategoriesController</title>
<ellipse fill="none" stroke="black" cx="491.751" cy="-134.847" rx="92.0532" ry="18"/>
<text text-anchor="middle" x="491.751" y="-129.247" font-family="Times,serif" font-size="14.00">CategoriesController</text>
</g>
<!-- ApplicationController&#45;&gt;CategoriesController -->
<g id="edge5" class="edge"><title>ApplicationController&#45;&gt;CategoriesController</title>
<path fill="none" stroke="black" d="M960.308,-578.49C938.495,-543.853 887.579,-466.603 833.953,-410.702 730.26,-302.61 584.396,-198.099 521.993,-155.227"/>
<polyline fill="none" stroke="black" points="517.646,-152.247 521.77,-155.074 "/>
</g>
<!-- CityController -->
<g id="node8" class="node"><title>CityController</title>
<ellipse fill="none" stroke="black" cx="482.356" cy="-1084.5" rx="67.2314" ry="18"/>
<text text-anchor="middle" x="482.356" y="-1078.9" font-family="Times,serif" font-size="14.00">CityController</text>
</g>
<!-- ApplicationController&#45;&gt;CityController -->
<g id="edge6" class="edge"><title>ApplicationController&#45;&gt;CityController</title>
<path fill="none" stroke="black" d="M953.46,-614.506C877.797,-689.991 585.501,-981.599 503.724,-1063.18"/>
<polyline fill="none" stroke="black" points="499.99,-1066.91 503.53,-1063.38 "/>
</g>
<!-- ClientManagerController -->
<g id="node9" class="node"><title>ClientManagerController</title>
<ellipse fill="none" stroke="black" cx="1228.63" cy="-747.62" rx="108.806" ry="18"/>
<text text-anchor="middle" x="1228.63" y="-742.02" font-family="Times,serif" font-size="14.00">ClientManagerController</text>
</g>
<!-- ApplicationController&#45;&gt;ClientManagerController -->
<g id="edge7" class="edge"><title>ApplicationController&#45;&gt;ClientManagerController</title>
<path fill="none" stroke="black" d="M1000.95,-613.889C1048.98,-642.099 1143.8,-697.793 1194.6,-727.632"/>
<polyline fill="none" stroke="black" points="1199.08,-730.261 1194.77,-727.729 "/>
</g>
<!-- CodesController -->
<g id="node10" class="node"><title>CodesController</title>
<ellipse fill="none" stroke="black" cx="723.478" cy="-670.263" rx="74.7448" ry="18"/>
<text text-anchor="middle" x="723.478" y="-664.663" font-family="Times,serif" font-size="14.00">CodesController</text>
</g>
<!-- ApplicationController&#45;&gt;CodesController -->
<g id="edge8" class="edge"><title>ApplicationController&#45;&gt;CodesController</title>
<path fill="none" stroke="black" d="M920.068,-611.832C877.723,-624.418 817.934,-642.188 775.433,-654.821"/>
<polyline fill="none" stroke="black" points="770.598,-656.258 775.39,-654.833 "/>
</g>
<!-- DashboardController -->
<g id="node13" class="node"><title>DashboardController</title>
<ellipse fill="none" stroke="black" cx="99.9426" cy="-119.351" rx="92.6283" ry="18"/>
<text text-anchor="middle" x="99.9426" y="-113.751" font-family="Times,serif" font-size="14.00">DashboardController</text>
</g>
<!-- ApplicationController&#45;&gt;DashboardController -->
<g id="edge11" class="edge"><title>ApplicationController&#45;&gt;DashboardController</title>
<path fill="none" stroke="black" d="M940.173,-579.436C805.81,-505.863 277.931,-216.812 135.511,-138.827"/>
<polyline fill="none" stroke="black" points="131.009,-136.362 135.395,-138.763 "/>
</g>
<!-- DownloadsController -->
<g id="node14" class="node"><title>DownloadsController</title>
<ellipse fill="none" stroke="black" cx="1655.32" cy="-173.823" rx="94.9386" ry="18"/>
<text text-anchor="middle" x="1655.32" y="-168.223" font-family="Times,serif" font-size="14.00">DownloadsController</text>
</g>
<!-- ApplicationController&#45;&gt;DownloadsController -->
<g id="edge12" class="edge"><title>ApplicationController&#45;&gt;DownloadsController</title>
<path fill="none" stroke="black" d="M999.53,-579.201C1108.96,-511.554 1506.52,-265.803 1623.02,-193.785"/>
<polyline fill="none" stroke="black" points="1627.38,-191.094 1623.13,-193.723 "/>
</g>
<!-- EmailsController -->
<g id="node15" class="node"><title>EmailsController</title>
<ellipse fill="none" stroke="black" cx="754.804" cy="-410.609" rx="77.6012" ry="18"/>
<text text-anchor="middle" x="754.804" y="-405.009" font-family="Times,serif" font-size="14.00">EmailsController</text>
</g>
<!-- ApplicationController&#45;&gt;EmailsController -->
<g id="edge13" class="edge"><title>ApplicationController&#45;&gt;EmailsController</title>
<path fill="none" stroke="black" d="M950.674,-578.731C910.456,-544.211 822.146,-468.411 779.208,-431.556"/>
<polyline fill="none" stroke="black" points="775.197,-428.114 778.991,-431.37 "/>
</g>
<!-- GoogleCategoriesController -->
<g id="node16" class="node"><title>GoogleCategoriesController</title>
<ellipse fill="none" stroke="black" cx="995.523" cy="-103" rx="120.41" ry="18"/>
<text text-anchor="middle" x="995.523" y="-97.4" font-family="Times,serif" font-size="14.00">GoogleCategoriesController</text>
</g>
<!-- ApplicationController&#45;&gt;GoogleCategoriesController -->
<g id="edge14" class="edge"><title>ApplicationController&#45;&gt;GoogleCategoriesController</title>
<path fill="none" stroke="black" d="M963.145,-578.456C947.682,-543.013 916.055,-461.649 916.381,-389.755 916.841,-288.148 963.338,-173.349 984.839,-125.648"/>
<polyline fill="none" stroke="black" points="986.963,-120.974 984.894,-125.526 "/>
</g>
<!-- ImpersonateController -->
<g id="node18" class="node"><title>ImpersonateController</title>
<ellipse fill="none" stroke="black" cx="756.036" cy="-103.349" rx="98.4165" ry="18"/>
<text text-anchor="middle" x="756.036" y="-97.7486" font-family="Times,serif" font-size="14.00">ImpersonateController</text>
</g>
<!-- ApplicationController&#45;&gt;ImpersonateController -->
<g id="edge16" class="edge"><title>ApplicationController&#45;&gt;ImpersonateController</title>
<path fill="none" stroke="black" d="M963.525,-578.422C930.37,-502.51 802.771,-210.355 766.003,-126.171"/>
<polyline fill="none" stroke="black" points="763.916,-121.391 765.917,-125.973 "/>
</g>
<!-- JobsController -->
<g id="node19" class="node"><title>JobsController</title>
<ellipse fill="none" stroke="black" cx="67.9031" cy="-456.809" rx="67.8063" ry="18"/>
<text text-anchor="middle" x="67.9031" y="-451.209" font-family="Times,serif" font-size="14.00">JobsController</text>
</g>
<!-- ApplicationController&#45;&gt;JobsController -->
<g id="edge17" class="edge"><title>ApplicationController&#45;&gt;JobsController</title>
<path fill="none" stroke="black" d="M897.122,-585.065C723.711,-558.244 294.777,-491.9 131.972,-466.719"/>
<polyline fill="none" stroke="black" points="126.763,-465.913 131.705,-466.677 "/>
</g>
<!-- LeadsController -->
<g id="node21" class="node"><title>LeadsController</title>
<ellipse fill="none" stroke="black" cx="1649.45" cy="-610.589" rx="73.5762" ry="18"/>
<text text-anchor="middle" x="1649.45" y="-604.989" font-family="Times,serif" font-size="14.00">LeadsController</text>
</g>
<!-- ApplicationController&#45;&gt;LeadsController -->
<g id="edge19" class="edge"><title>ApplicationController&#45;&gt;LeadsController</title>
<path fill="none" stroke="black" d="M1067.51,-598.549C1202.45,-601.341 1445.58,-606.371 1570.55,-608.957"/>
<polyline fill="none" stroke="black" points="1575.68,-609.063 1570.68,-608.959 "/>
</g>
<!-- PackagesController -->
<g id="node24" class="node"><title>PackagesController</title>
<ellipse fill="none" stroke="black" cx="1649.89" cy="-1027.67" rx="86.8214" ry="18"/>
<text text-anchor="middle" x="1649.89" y="-1022.07" font-family="Times,serif" font-size="14.00">PackagesController</text>
</g>
<!-- ApplicationController&#45;&gt;PackagesController -->
<g id="edge22" class="edge"><title>ApplicationController&#45;&gt;PackagesController</title>
<path fill="none" stroke="black" d="M985.781,-614.614C1010.46,-644.868 1063.62,-706.509 1118.38,-747.448 1283.33,-870.75 1509.96,-970.528 1605.04,-1009.74"/>
<polyline fill="none" stroke="black" points="1609.75,-1011.67 1605.12,-1009.77 "/>
</g>
<!-- PagesController -->
<g id="node25" class="node"><title>PagesController</title>
<ellipse fill="none" stroke="black" cx="747.923" cy="-1055.58" rx="73.0201" ry="18"/>
<text text-anchor="middle" x="747.923" y="-1049.98" font-family="Times,serif" font-size="14.00">PagesController</text>
</g>
<!-- ApplicationController&#45;&gt;PagesController -->
<g id="edge23" class="edge"><title>ApplicationController&#45;&gt;PagesController</title>
<path fill="none" stroke="black" d="M954.977,-614.499C923.714,-649.457 855.473,-730.245 817.086,-809.599 779.774,-886.729 759.393,-987.494 751.635,-1032.32"/>
<polyline fill="none" stroke="black" points="750.751,-1037.51 751.592,-1032.58 "/>
</g>
<!-- PayloadNodesController -->
<g id="node26" class="node"><title>PayloadNodesController</title>
<ellipse fill="none" stroke="black" cx="1024.5" cy="-389.855" rx="106.533" ry="18"/>
<text text-anchor="middle" x="1024.5" y="-384.255" font-family="Times,serif" font-size="14.00">PayloadNodesController</text>
</g>
<!-- ApplicationController&#45;&gt;PayloadNodesController -->
<g id="edge24" class="edge"><title>ApplicationController&#45;&gt;PayloadNodesController</title>
<path fill="none" stroke="black" d="M976.062,-578.579C985.683,-541.089 1007.88,-454.618 1018.55,-413.026"/>
<polyline fill="none" stroke="black" points="1019.85,-407.943 1018.61,-412.786 "/>
</g>
<!-- PlacesController -->
<g id="node28" class="node"><title>PlacesController</title>
<ellipse fill="none" stroke="black" cx="1272.44" cy="-117.178" rx="75.301" ry="18"/>
<text text-anchor="middle" x="1272.44" y="-111.578" font-family="Times,serif" font-size="14.00">PlacesController</text>
</g>
<!-- ApplicationController&#45;&gt;PlacesController -->
<g id="edge26" class="edge"><title>ApplicationController&#45;&gt;PlacesController</title>
<path fill="none" stroke="black" d="M987.342,-578.628C1017.76,-543.811 1085.37,-463.964 1132.61,-389.955 1188.94,-301.699 1241.28,-187.985 1262.49,-140.071"/>
<polyline fill="none" stroke="black" points="1264.56,-135.371 1262.55,-139.945 "/>
</g>
<!-- ResultsController -->
<g id="node32" class="node"><title>ResultsController</title>
<ellipse fill="none" stroke="black" cx="83.1362" cy="-1062.54" rx="79.3363" ry="18"/>
<text text-anchor="middle" x="83.1362" y="-1056.94" font-family="Times,serif" font-size="14.00">ResultsController</text>
</g>
<!-- ApplicationController&#45;&gt;ResultsController -->
<g id="edge30" class="edge"><title>ApplicationController&#45;&gt;ResultsController</title>
<path fill="none" stroke="black" d="M939.043,-613.559C801.217,-685.857 264.183,-967.566 119.315,-1043.56"/>
<polyline fill="none" stroke="black" points="114.735,-1045.96 119.163,-1043.64 "/>
</g>
<!-- ScanApiController -->
<g id="node33" class="node"><title>ScanApiController</title>
<ellipse fill="none" stroke="black" cx="112.021" cy="-734.063" rx="83.974" ry="18"/>
<text text-anchor="middle" x="112.021" y="-728.463" font-family="Times,serif" font-size="14.00">ScanApiController</text>
</g>
<!-- ApplicationController&#45;&gt;ScanApiController -->
<g id="edge31" class="edge"><title>ApplicationController&#45;&gt;ScanApiController</title>
<path fill="none" stroke="black" d="M898.173,-608.284C735.64,-634.289 346.526,-696.544 184.621,-722.448"/>
<polyline fill="none" stroke="black" points="179.428,-723.279 184.365,-722.489 "/>
</g>
<!-- ScanController -->
<g id="node34" class="node"><title>ScanController</title>
<ellipse fill="none" stroke="black" cx="497.487" cy="-767.329" rx="69.5031" ry="18"/>
<text text-anchor="middle" x="497.487" y="-761.729" font-family="Times,serif" font-size="14.00">ScanController</text>
</g>
<!-- ApplicationController&#45;&gt;ScanController -->
<g id="edge32" class="edge"><title>ApplicationController&#45;&gt;ScanController</title>
<path fill="none" stroke="black" d="M937.64,-613.5C899.335,-632.294 834.739,-662.79 777.174,-684.218 700.562,-712.736 609.396,-738.327 552.47,-753.348"/>
<polyline fill="none" stroke="black" points="547.411,-754.679 552.246,-753.407 "/>
</g>
<!-- SubscriptionsController -->
<g id="node36" class="node"><title>SubscriptionsController</title>
<ellipse fill="none" stroke="black" cx="921.993" cy="-809.748" rx="103.121" ry="18"/>
<text text-anchor="middle" x="921.993" y="-804.148" font-family="Times,serif" font-size="14.00">SubscriptionsController</text>
</g>
<!-- ApplicationController&#45;&gt;SubscriptionsController -->
<g id="edge34" class="edge"><title>ApplicationController&#45;&gt;SubscriptionsController</title>
<path fill="none" stroke="black" d="M967.23,-614.737C958.252,-653.441 937.259,-743.94 927.35,-786.652"/>
<polyline fill="none" stroke="black" points="926.199,-791.618 927.329,-786.747 "/>
</g>
<!-- TasksController -->
<g id="node37" class="node"><title>TasksController</title>
<ellipse fill="none" stroke="black" cx="469.3" cy="-475.522" rx="72.6709" ry="18"/>
<text text-anchor="middle" x="469.3" y="-469.922" font-family="Times,serif" font-size="14.00">TasksController</text>
</g>
<!-- ApplicationController&#45;&gt;TasksController -->
<g id="edge35" class="edge"><title>ApplicationController&#45;&gt;TasksController</title>
<path fill="none" stroke="black" d="M912.368,-582.32C815.2,-558.899 622.871,-512.539 526.768,-489.374"/>
<polyline fill="none" stroke="black" points="521.703,-488.154 526.563,-489.325 "/>
</g>
<!-- TestController -->
<g id="node38" class="node"><title>TestController</title>
<ellipse fill="none" stroke="black" cx="994.004" cy="-1093.15" rx="66.8641" ry="18"/>
<text text-anchor="middle" x="994.004" y="-1087.55" font-family="Times,serif" font-size="14.00">TestController</text>
</g>
<!-- ApplicationController&#45;&gt;TestController -->
<g id="edge36" class="edge"><title>ApplicationController&#45;&gt;TestController</title>
<path fill="none" stroke="black" d="M978.617,-614.726C992.412,-651.074 1021.74,-735.644 1026.9,-809.897 1033.64,-906.867 1010.69,-1021.71 999.628,-1069.97"/>
<polyline fill="none" stroke="black" points="998.468,-1074.98 999.597,-1070.11 "/>
</g>
<!-- ZipController -->
<g id="node40" class="node"><title>ZipController</title>
<ellipse fill="none" stroke="black" cx="1271.16" cy="-1071.25" rx="64.2809" ry="18"/>
<text text-anchor="middle" x="1271.16" y="-1065.65" font-family="Times,serif" font-size="14.00">ZipController</text>
</g>
<!-- ApplicationController&#45;&gt;ZipController -->
<g id="edge38" class="edge"><title>ApplicationController&#45;&gt;ZipController</title>
<path fill="none" stroke="black" d="M982.83,-614.59C1029.38,-688.314 1205.21,-966.805 1256.83,-1048.56"/>
<polyline fill="none" stroke="black" points="1259.77,-1053.21 1257.1,-1048.98 "/>
</g>
<!-- BooboosController -->
<g id="node4" class="node"><title>BooboosController</title>
<ellipse fill="none" stroke="black" cx="2429.82" cy="-1440.49" rx="85.1431" ry="18"/>
<text text-anchor="middle" x="2429.82" y="-1434.89" font-family="Times,serif" font-size="14.00">BooboosController</text>
</g>
<!-- BusinessesController -->
<g id="node5" class="node"><title>BusinessesController</title>
<ellipse fill="none" stroke="black" cx="1767.25" cy="-1208.05" rx="93.2318" ry="18"/>
<text text-anchor="middle" x="1767.25" y="-1202.45" font-family="Times,serif" font-size="14.00">BusinessesController</text>
</g>
<!-- CouponsController -->
<g id="node11" class="node"><title>CouponsController</title>
<ellipse fill="none" stroke="black" cx="1975.38" cy="-1674.78" rx="85.1431" ry="18"/>
<text text-anchor="middle" x="1975.38" y="-1669.18" font-family="Times,serif" font-size="14.00">CouponsController</text>
</g>
<!-- CustomersController -->
<g id="node12" class="node"><title>CustomersController</title>
<ellipse fill="none" stroke="black" cx="2198.66" cy="-1456.3" rx="92.0815" ry="18"/>
<text text-anchor="middle" x="2198.66" y="-1450.7" font-family="Times,serif" font-size="14.00">CustomersController</text>
</g>
<!-- ImagesController -->
<g id="node17" class="node"><title>ImagesController</title>
<ellipse fill="none" stroke="black" cx="1758.62" cy="-1674.48" rx="78.7327" ry="18"/>
<text text-anchor="middle" x="1758.62" y="-1668.88" font-family="Times,serif" font-size="14.00">ImagesController</text>
</g>
<!-- LabelsController -->
<g id="node20" class="node"><title>LabelsController</title>
<ellipse fill="none" stroke="black" cx="1533.39" cy="-1211.87" rx="76.4416" ry="18"/>
<text text-anchor="middle" x="1533.39" y="-1206.27" font-family="Times,serif" font-size="14.00">LabelsController</text>
</g>
<!-- MyDevise::RegistrationsController -->
<g id="node22" class="node"><title>MyDevise::RegistrationsController</title>
<ellipse fill="none" stroke="black" cx="1422.29" cy="-18" rx="147.08" ry="18"/>
<text text-anchor="middle" x="1422.29" y="-12.4" font-family="Times,serif" font-size="14.00">MyDevise::RegistrationsController</text>
</g>
<!-- NotificationsController -->
<g id="node23" class="node"><title>NotificationsController</title>
<ellipse fill="none" stroke="black" cx="2431.67" cy="-1208.84" rx="100.745" ry="18"/>
<text text-anchor="middle" x="2431.67" y="-1203.24" font-family="Times,serif" font-size="14.00">NotificationsController</text>
</g>
<!-- PayloadsController -->
<g id="node27" class="node"><title>PayloadsController</title>
<ellipse fill="none" stroke="black" cx="1763.6" cy="-1438.46" rx="85.6994" ry="18"/>
<text text-anchor="middle" x="1763.6" y="-1432.86" font-family="Times,serif" font-size="14.00">PayloadsController</text>
</g>
<!-- QuestionsController -->
<g id="node29" class="node"><title>QuestionsController</title>
<ellipse fill="none" stroke="black" cx="2203.06" cy="-1217.02" rx="89.2157" ry="18"/>
<text text-anchor="middle" x="2203.06" y="-1211.42" font-family="Times,serif" font-size="14.00">QuestionsController</text>
</g>
<!-- ReportFeedbacksController -->
<g id="node30" class="node"><title>ReportFeedbacksController</title>
<ellipse fill="none" stroke="black" cx="1986.41" cy="-1208" rx="117.545" ry="18"/>
<text text-anchor="middle" x="1986.41" y="-1202.4" font-family="Times,serif" font-size="14.00">ReportFeedbacksController</text>
</g>
<!-- ReportsController -->
<g id="node31" class="node"><title>ReportsController</title>
<ellipse fill="none" stroke="black" cx="1530.2" cy="-1678.53" rx="80.543" ry="18"/>
<text text-anchor="middle" x="1530.2" y="-1672.93" font-family="Times,serif" font-size="14.00">ReportsController</text>
</g>
<!-- SitesController -->
<g id="node35" class="node"><title>SitesController</title>
<ellipse fill="none" stroke="black" cx="2428.69" cy="-1675.67" rx="69.522" ry="18"/>
<text text-anchor="middle" x="2428.69" y="-1670.07" font-family="Times,serif" font-size="14.00">SitesController</text>
</g>
<!-- UsersController -->
<g id="node39" class="node"><title>UsersController</title>
<ellipse fill="none" stroke="black" cx="2194.51" cy="-1683.41" rx="72.9449" ry="18"/>
<text text-anchor="middle" x="2194.51" y="-1677.81" font-family="Times,serif" font-size="14.00">UsersController</text>
</g>
<!-- InheritedResources::Base -->
<g id="node41" class="node"><title>InheritedResources::Base</title>
<ellipse fill="none" stroke="black" cx="1981.53" cy="-1438.76" rx="109.937" ry="18"/>
<text text-anchor="middle" x="1981.53" y="-1433.16" font-family="Times,serif" font-size="14.00">InheritedResources::Base</text>
</g>
<!-- InheritedResources::Base&#45;&gt;AccountsController -->
<g id="edge1" class="edge"><title>InheritedResources::Base&#45;&gt;AccountsController</title>
<path fill="none" stroke="black" d="M1893.03,-1449.4C1853.43,-1453.44 1806.11,-1457.26 1763.34,-1458.06 1715.28,-1458.96 1661.66,-1456.45 1618.17,-1453.52"/>
<polyline fill="none" stroke="black" points="1612.92,-1453.16 1617.91,-1453.5 "/>
</g>
<!-- InheritedResources::Base&#45;&gt;BooboosController -->
<g id="edge2" class="edge"><title>InheritedResources::Base&#45;&gt;BooboosController</title>
<path fill="none" stroke="black" d="M2090.92,-1437.17C2125.43,-1436.82 2163.69,-1436.58 2198.76,-1436.7 2245.32,-1436.86 2297.14,-1437.65 2339.89,-1438.47"/>
<polyline fill="none" stroke="black" points="2345.05,-1438.57 2340.05,-1438.48 "/>
</g>
<!-- InheritedResources::Base&#45;&gt;BusinessesController -->
<g id="edge3" class="edge"><title>InheritedResources::Base&#45;&gt;BusinessesController</title>
<path fill="none" stroke="black" d="M1964.71,-1420.66C1925.75,-1378.71 1829.43,-1275 1787.4,-1229.75"/>
<polyline fill="none" stroke="black" points="1783.99,-1226.07 1787.39,-1229.74 "/>
</g>
<!-- InheritedResources::Base&#45;&gt;CouponsController -->
<g id="edge9" class="edge"><title>InheritedResources::Base&#45;&gt;CouponsController</title>
<path fill="none" stroke="black" d="M1981.06,-1456.89C1979.95,-1499.19 1977.22,-1604.39 1975.99,-1651.42"/>
<polyline fill="none" stroke="black" points="1975.86,-1656.59 1975.99,-1651.59 "/>
</g>
<!-- InheritedResources::Base&#45;&gt;CustomersController -->
<g id="edge10" class="edge"><title>InheritedResources::Base&#45;&gt;CustomersController</title>
<path fill="none" stroke="black" d="M2080.25,-1446.73C2089.6,-1447.49 2099.06,-1448.25 2108.33,-1449"/>
<polyline fill="none" stroke="black" points="2113.46,-1449.42 2108.48,-1449.01 "/>
</g>
<!-- InheritedResources::Base&#45;&gt;ImagesController -->
<g id="edge15" class="edge"><title>InheritedResources::Base&#45;&gt;ImagesController</title>
<path fill="none" stroke="black" d="M1964.41,-1456.86C1923.95,-1499.65 1822.58,-1606.84 1779.03,-1652.9"/>
<polyline fill="none" stroke="black" points="1775.49,-1656.64 1778.93,-1653 "/>
</g>
<!-- InheritedResources::Base&#45;&gt;LabelsController -->
<g id="edge18" class="edge"><title>InheritedResources::Base&#45;&gt;LabelsController</title>
<path fill="none" stroke="black" d="M1947.48,-1421.52C1865.19,-1379.86 1656.01,-1273.95 1570.59,-1230.7"/>
<polyline fill="none" stroke="black" points="1565.87,-1228.32 1570.34,-1230.58 "/>
</g>
<!-- InheritedResources::Base&#45;&gt;NotificationsController -->
<g id="edge21" class="edge"><title>InheritedResources::Base&#45;&gt;NotificationsController</title>
<path fill="none" stroke="black" d="M2015.36,-1421.48C2097.62,-1379.46 2307.64,-1272.19 2393.85,-1228.16"/>
<polyline fill="none" stroke="black" points="2398.36,-1225.86 2393.91,-1228.13 "/>
</g>
<!-- InheritedResources::Base&#45;&gt;PayloadsController -->
<g id="edge25" class="edge"><title>InheritedResources::Base&#45;&gt;PayloadsController</title>
<path fill="none" stroke="black" d="M1871.61,-1438.61C1865.85,-1438.6 1860.11,-1438.59 1854.43,-1438.58"/>
<polyline fill="none" stroke="black" points="1849.23,-1438.58 1854.23,-1438.58 "/>
</g>
<!-- InheritedResources::Base&#45;&gt;QuestionsController -->
<g id="edge27" class="edge"><title>InheritedResources::Base&#45;&gt;QuestionsController</title>
<path fill="none" stroke="black" d="M1999.28,-1420.99C2039.63,-1380.61 2138.08,-1282.07 2181.68,-1238.43"/>
<polyline fill="none" stroke="black" points="2185.23,-1234.88 2181.69,-1238.42 "/>
</g>
<!-- InheritedResources::Base&#45;&gt;ReportFeedbacksController -->
<g id="edge28" class="edge"><title>InheritedResources::Base&#45;&gt;ReportFeedbacksController</title>
<path fill="none" stroke="black" d="M1981.91,-1420.65C1982.79,-1379.12 1984.95,-1277.03 1985.92,-1231.08"/>
<polyline fill="none" stroke="black" points="1986.03,-1226.02 1985.92,-1231.02 "/>
</g>
<!-- InheritedResources::Base&#45;&gt;ReportsController -->
<g id="edge29" class="edge"><title>InheritedResources::Base&#45;&gt;ReportsController</title>
<path fill="none" stroke="black" d="M1949.07,-1456C1866.96,-1499.62 1651.46,-1614.11 1565.93,-1659.55"/>
<polyline fill="none" stroke="black" points="1561.46,-1661.92 1565.88,-1659.57 "/>
</g>
<!-- InheritedResources::Base&#45;&gt;SitesController -->
<g id="edge33" class="edge"><title>InheritedResources::Base&#45;&gt;SitesController</title>
<path fill="none" stroke="black" d="M2014.05,-1455.99C2095.71,-1499.25 2308.89,-1612.2 2393.42,-1656.99"/>
<polyline fill="none" stroke="black" points="2398.07,-1659.45 2393.66,-1657.11 "/>
</g>
<!-- InheritedResources::Base&#45;&gt;UsersController -->
<g id="edge37" class="edge"><title>InheritedResources::Base&#45;&gt;UsersController</title>
<path fill="none" stroke="black" d="M1997.19,-1456.75C2035.59,-1500.86 2134.31,-1614.27 2175.75,-1661.87"/>
<polyline fill="none" stroke="black" points="2179.11,-1665.73 2175.83,-1661.95 "/>
</g>
<!-- Devise::RegistrationsController -->
<g id="node42" class="node"><title>Devise::RegistrationsController</title>
<ellipse fill="none" stroke="black" cx="1712.48" cy="-18" rx="133.75" ry="18"/>
<text text-anchor="middle" x="1712.48" y="-12.4" font-family="Times,serif" font-size="14.00">Devise::RegistrationsController</text>
</g>
<!-- Devise::RegistrationsController&#45;&gt;MyDevise::RegistrationsController -->
<g id="edge20" class="edge"><title>Devise::RegistrationsController&#45;&gt;MyDevise::RegistrationsController</title>
<path fill="none" stroke="black" d="M1578.43,-18C1577.28,-18 1576.14,-18 1574.99,-18"/>
<polyline fill="none" stroke="black" points="1569.95,-18 1574.95,-17.9999 "/>
</g>
</g>
</svg>
